<?xml version="1.0" encoding="UTF-8"?>
<svg id="Layer_1" data-name="Layer 1" xmlns="http://www.w3.org/2000/svg" xmlns:xlink="http://www.w3.org/1999/xlink" version="1.1" viewBox="0 0 841.89 901.9">
  <defs>
    <linearGradient id="Naamloos_verloop_249" data-name="Naamloos verloop 249" x1="254.97" y1="152.18" x2="364.73" y2="152.18" gradientUnits="userSpaceOnUse">
      <stop offset="0" stop-color="#008e00"/>
      <stop offset=".8" stop-color="#0db400"/>
    </linearGradient>
    <linearGradient id="Naamloos_verloop_215" data-name="Naamloos verloop 215" x1="477.17" y1="152.18" x2="586.92" y2="152.18" gradientUnits="userSpaceOnUse">
      <stop offset=".26" stop-color="#ec0000"/>
      <stop offset="1" stop-color="#a70000"/>
    </linearGradient>
    <linearGradient id="Naamloos_verloop_164" data-name="Naamloos verloop 164" x1="255.13" y1="360.5" x2="586.76" y2="360.5" gradientUnits="userSpaceOnUse">
      <stop offset="0" stop-color="#ddca00"/>
      <stop offset=".5" stop-color="#ff0"/>
      <stop offset="1" stop-color="#ddca00"/>
    </linearGradient>
    <linearGradient id="Naamloos_verloop_262" data-name="Naamloos verloop 262" x1="450.75" y1="350.89" x2="538.3" y2="350.89" gradientUnits="userSpaceOnUse">
      <stop offset="0" stop-color="#fff" stop-opacity="0"/>
      <stop offset="1" stop-color="#fff"/>
    </linearGradient>
    <linearGradient id="Naamloos_verloop_262-2" data-name="Naamloos verloop 262" x1="477.17" y1="144.12" y2="144.12" xlink:href="#Naamloos_verloop_262"/>
  </defs>
  <g>
    <path d="M595.79,142.87s-72.55-36.46-174.85-36.46-174.85,36.46-174.85,36.46v152.6c0,184.42,174.85,278.99,174.85,278.99,0,0,174.85-94.57,174.85-278.99v-152.6Z" fill="#fff" stroke-width="0"/>
    <path d="M420.95,579.38l-2.06-1.11c-1.81-.98-44.83-24.52-88.52-71.19-25.69-27.44-46.16-57.17-60.86-88.37-18.4-39.07-27.73-80.53-27.73-123.24v-155.27l2.38-1.2c.73-.37,74.65-36.92,176.79-36.92s176.06,36.55,176.79,36.92l2.38,1.2v155.27c0,42.71-9.33,84.17-27.73,123.24-14.69,31.2-35.17,60.93-60.86,88.37-43.69,46.67-86.71,70.21-88.52,71.19l-2.06,1.11ZM250.43,145.61v149.86c0,41.42,9.05,81.65,26.91,119.55,14.31,30.38,34.28,59.36,59.35,86.15,37.42,39.98,75.17,63.05,84.26,68.32,9.12-5.29,47.02-28.48,84.46-68.53,25.02-26.77,44.95-55.74,59.23-86.09,17.81-37.86,26.84-78.03,26.84-119.4v-149.86c-13.28-6.1-80.69-34.87-170.52-34.87s-157.23,28.77-170.52,34.87Z" fill="#000" stroke-width="0"/>
  </g>
  <g>
    <path d="M364.73,119.88c-37.33,4.69-74.21,14.07-109.75,28.14v36.46c35.54-14.07,72.42-23.45,109.75-28.14v-36.46Z" fill="url(#Naamloos_verloop_249)" stroke-width="0"/>
    <path d="M477.17,119.88c-37.33-4.69-75.11-4.69-112.44,0v36.46c37.33-4.69,75.11-4.69,112.44,0v-36.46Z" fill="#fff" stroke-width="0"/>
    <path d="M586.92,148.02c-35.54-14.07-72.42-23.45-109.75-28.14v36.46c37.33,4.69,74.21,14.07,109.75,28.14v-36.46Z" fill="url(#Naamloos_verloop_215)" stroke-width="0"/>
  </g>
  <path d="M420.95,156.96c22.74,0,45.86,1.86,68.71,5.53,18.31,2.94,36.49,7.04,54.04,12.19,20.78,6.1,35.78,12.26,43.06,15.48v105.31c0,21.23-2.43,42.31-7.23,62.68-4.36,18.53-10.78,36.88-19.08,54.55-14.03,29.89-33.64,58.43-58.28,84.82-9.72,10.42-20.26,20.52-31.32,30.03-8.87,7.62-18.09,14.89-27.4,21.59-9.96,7.16-17.93,12.15-22.51,14.89-4.58-2.74-12.55-7.73-22.51-14.89-9.32-6.7-18.54-13.96-27.4-21.59-11.06-9.51-21.6-19.61-31.32-30.03-24.64-26.4-44.24-54.94-58.28-84.82-8.3-17.67-14.72-36.03-19.08-54.55-4.8-20.36-7.23-41.45-7.23-62.68v-105.31c7.29-3.23,22.29-9.38,43.06-15.48,17.55-5.15,35.73-9.25,54.04-12.19,22.85-3.67,45.97-5.53,68.71-5.53" fill="url(#Naamloos_verloop_164)" stroke-width="0"/>
  <path d="M432.43,306.25" fill="#000" stroke-width="0"/>
  <g opacity=".44">
    <path d="M538.3,173.14c-15.87-4.43-32.2-8.01-48.64-10.65-12.92-2.07-25.93-3.57-38.9-4.48v385.75c6.83-5.15,13.56-10.58,20.11-16.21,11.06-9.51,21.6-19.61,31.32-30.03,13.61-14.58,25.68-29.81,36.12-45.57V173.14Z" fill="url(#Naamloos_verloop_262)" stroke-width="0"/>
    <path d="M477.17,119.88v36.46c20.56,2.58,40.99,6.59,61.13,12.02v-36.46c-20.14-5.43-40.57-9.44-61.13-12.02Z" fill="url(#Naamloos_verloop_262-2)" stroke-width="0"/>
  </g>
  <g>
    <path d="M219.16,827.35v-18.32h2.48v18.32h-2.48ZM220.82,827.35v-2.16h5.54c1.06,0,1.88-.31,2.48-.94.6-.62.9-1.38.9-2.26,0-.6-.13-1.14-.4-1.61-.26-.48-.65-.86-1.15-1.15-.5-.29-1.1-.44-1.78-.44h-5.59v-2.16h5.23c.9,0,1.61-.23,2.12-.7.52-.47.78-1.14.78-2.02s-.27-1.55-.82-2.02c-.55-.47-1.28-.7-2.19-.7h-5.12v-2.16h5.2c1.2,0,2.19.22,3,.65.8.43,1.41,1,1.82,1.7.41.7.62,1.48.62,2.32,0,.99-.27,1.85-.8,2.59-.54.74-1.32,1.32-2.36,1.74l.21-.79c1.18.42,2.1,1.06,2.76,1.91.66.85.99,1.86.99,3.02,0,.97-.24,1.84-.71,2.61-.48.77-1.16,1.39-2.05,1.86-.89.47-1.98.7-3.26.7h-5.41Z" fill="#000" stroke-width="0"/>
    <path d="M253.68,819.91l-7.2-10.87h2.9l5.81,8.89h-1.29l5.83-8.89h2.82l-7.26,10.87h-1.61ZM253.28,827.35v-9.08h2.48v9.08h-2.48Z" fill="#000" stroke-width="0"/>
    <path d="M294.77,811.3v-2.27h14.91v2.27h-14.91ZM300.97,827.35v-17.79h2.51v17.79h-2.51Z" fill="#000" stroke-width="0"/>
    <path d="M321.79,827.35l7.52-18.32h1.79l7.47,18.32h-2.69l-6.18-15.49h.95l-6.2,15.49h-2.67ZM325.38,823.2v-2.16h9.63v2.16h-9.63Z" fill="#000" stroke-width="0"/>
    <path d="M354.52,827.35v-18.32h2.48v18.32h-2.48ZM356.18,819.38v-2.08h4.96c1.07,0,1.9-.27,2.47-.82.57-.55.86-1.28.86-2.22,0-.88-.29-1.61-.86-2.19-.57-.58-1.39-.87-2.44-.87h-4.99v-2.16h5.07c1.16,0,2.17.22,3.04.67.86.45,1.53,1.06,1.99,1.83.47.77.7,1.66.7,2.67s-.23,1.94-.7,2.72c-.47.77-1.13,1.38-1.99,1.81-.86.43-1.87.65-3.04.65h-5.07ZM365.08,827.35l-6.65-8.21,2.35-.82,7.44,9.03h-3.14Z" fill="#000" stroke-width="0"/>
    <path d="M391.97,827.61c-1.27,0-2.46-.24-3.58-.73-1.12-.48-2.09-1.16-2.93-2.02-.84-.86-1.49-1.86-1.97-3.01-.48-1.14-.71-2.38-.71-3.69s.24-2.55.71-3.68c.47-1.13,1.13-2.13,1.98-3,.84-.86,1.83-1.53,2.97-2.01,1.13-.48,2.37-.71,3.71-.71,1.46,0,2.81.28,4.04.84,1.23.56,2.26,1.37,3.09,2.43l-1.72,1.72c-.58-.84-1.35-1.49-2.3-1.94-.95-.45-1.99-.67-3.11-.67-1.34,0-2.52.3-3.55.9-1.03.6-1.83,1.43-2.4,2.48-.57,1.06-.86,2.27-.86,3.64s.29,2.61.87,3.67c.58,1.06,1.36,1.88,2.35,2.48.99.6,2.1.9,3.35.9s2.42-.25,3.36-.74c.94-.49,1.66-1.22,2.16-2.18.5-.96.76-2.13.78-3.52l1.5,1.11h-7.92v-2.3h8.97v.37c0,2.13-.37,3.91-1.12,5.34-.75,1.43-1.79,2.51-3.11,3.23-1.33.72-2.85,1.08-4.58,1.08Z" fill="#000" stroke-width="0"/>
    <path d="M415.03,827.35l7.52-18.32h1.79l7.47,18.32h-2.69l-6.18-15.49h.95l-6.2,15.49h-2.67ZM418.62,823.2v-2.16h9.63v2.16h-9.63Z" fill="#000" stroke-width="0"/>
    <path d="M465.89,827.35v-18.32h2.48v18.32h-2.48ZM467.53,827.35v-2.27h5.09c1.34,0,2.52-.29,3.55-.88,1.03-.59,1.83-1.4,2.4-2.44.57-1.04.86-2.23.86-3.59s-.29-2.52-.87-3.55-1.38-1.84-2.4-2.43c-1.02-.59-2.2-.88-3.54-.88h-5.07v-2.27h5.12c1.34,0,2.57.23,3.71.69,1.13.46,2.12,1.1,2.96,1.93.84.83,1.49,1.79,1.95,2.9.47,1.11.7,2.32.7,3.64s-.23,2.51-.7,3.63c-.47,1.12-1.11,2.09-1.94,2.92-.83.83-1.81,1.47-2.94,1.93-1.13.46-2.36.69-3.68.69h-5.2Z" fill="#000" stroke-width="0"/>
    <path d="M498.62,827.35v-18.32h2.48v18.32h-2.48ZM500.3,811.3v-2.27h10.37v2.27h-10.37ZM500.3,819.09v-2.19h9.63v2.19h-9.63ZM500.3,827.35v-2.27h10.5v2.27h-10.5Z" fill="#000" stroke-width="0"/>
    <path d="M531.98,827.61c-1.43,0-2.65-.26-3.67-.79-1.02-.53-1.93-1.29-2.72-2.3l1.69-1.69c.58.81,1.25,1.42,2.01,1.83.76.41,1.69.62,2.8.62s1.97-.24,2.63-.71c.66-.48.99-1.13.99-1.95,0-.69-.16-1.24-.49-1.66-.33-.42-.75-.77-1.28-1.04-.53-.27-1.11-.51-1.74-.73s-1.27-.44-1.9-.7c-.63-.25-1.22-.58-1.76-.96-.54-.39-.96-.88-1.28-1.49-.32-.61-.48-1.39-.48-2.34,0-1.04.25-1.92.75-2.65.5-.73,1.19-1.29,2.06-1.69.87-.4,1.85-.59,2.94-.59,1.2,0,2.27.23,3.22.7.95.47,1.72,1.08,2.32,1.83l-1.69,1.69c-.55-.63-1.13-1.11-1.76-1.43-.62-.32-1.34-.47-2.15-.47-.99,0-1.77.22-2.35.65-.58.43-.87,1.03-.87,1.81,0,.62.16,1.11.49,1.49.33.38.75.7,1.28.96s1.11.51,1.76.73c.64.22,1.28.46,1.91.73s1.21.6,1.74,1c.53.41.95.93,1.28,1.57.33.64.49,1.45.49,2.41,0,1.62-.56,2.89-1.68,3.8-1.12.92-2.64,1.37-4.55,1.37Z" fill="#000" stroke-width="0"/>
    <path d="M554.75,827.35v-18.32h2.48v18.32h-2.48Z" fill="#000" stroke-width="0"/>
    <path d="M583.02,827.61c-1.27,0-2.46-.24-3.58-.73-1.12-.48-2.09-1.16-2.93-2.02-.84-.86-1.49-1.86-1.97-3.01-.48-1.14-.71-2.38-.71-3.69s.24-2.55.71-3.68c.47-1.13,1.13-2.13,1.98-3,.84-.86,1.83-1.53,2.97-2.01,1.13-.48,2.37-.71,3.71-.71,1.46,0,2.81.28,4.04.84,1.23.56,2.26,1.37,3.09,2.43l-1.72,1.72c-.58-.84-1.35-1.49-2.3-1.94-.95-.45-1.99-.67-3.11-.67-1.34,0-2.52.3-3.55.9-1.03.6-1.83,1.43-2.4,2.48-.57,1.06-.86,2.27-.86,3.64s.29,2.61.87,3.67c.58,1.06,1.36,1.88,2.35,2.48.99.6,2.1.9,3.35.9s2.42-.25,3.36-.74c.94-.49,1.66-1.22,2.16-2.18.5-.96.76-2.13.78-3.52l1.5,1.11h-7.92v-2.3h8.97v.37c0,2.13-.37,3.91-1.12,5.34-.75,1.43-1.79,2.51-3.11,3.23-1.33.72-2.85,1.08-4.58,1.08Z" fill="#000" stroke-width="0"/>
    <path d="M608.32,827.35v-18.32h1.74l.74,2.9v15.41h-2.48ZM620.99,827.35l-11.24-14.99.32-3.33,11.27,14.99-.34,3.33ZM620.99,827.35l-.74-2.72v-15.6h2.48v18.32h-1.74Z" fill="#000" stroke-width="0"/>
  </g>
  <path d="M298.57,693.11h25.22c.82,0,1.48.66,1.48,1.48v6.89c0,1.18,1.33,1.89,2.31,1.22,3.24-2.2,8.91-6.03,10.42-6.92,2.14-1.27,3.35-2.67,10.5-2.67s12.7,5.69,12.7,12.7v26.07c0,.82-.66,1.48-1.48,1.48h-18.95c-.82,0-1.48-.66-1.48-1.48v-22.68c0-1.17-1.3-1.88-2.28-1.24-1.43.93-3.33,2.23-5.11,3.64-2.04,1.61-3.96,3.74-5.21,5.22-.92,1.09-1.42,2.47-1.42,3.89v34.62c0,.82.66,1.48,1.48,1.48h4.4c.82,0,1.48.66,1.48,1.48v9.79c0,.82-.66,1.48-1.48,1.48h-32.57c-.82,0-1.48-.66-1.48-1.48v-9.79c0-.82.66-1.48,1.48-1.48h4.01c.82,0,1.48-.66,1.48-1.48v-48c0-.82-.66-1.48-1.48-1.48h-4.01c-.82,0-1.48-.66-1.48-1.48v-9.79c0-.82.66-1.48,1.48-1.48Z" fill="#000" stroke-width="0"/>
  <path d="M402.87,693.11h25.22c.82,0,1.48.66,1.48,1.48v6.89c0,1.18,1.33,1.89,2.31,1.22,3.24-2.2,8.91-6.03,10.42-6.92,2.14-1.27,3.35-2.67,10.5-2.67s12.7,5.69,12.7,12.7v26.07c0,.82-.66,1.48-1.48,1.48h-18.95c-.82,0-1.48-.66-1.48-1.48v-22.68c0-1.17-1.3-1.88-2.28-1.24-1.43.93-3.33,2.23-5.11,3.64-2.04,1.61-3.96,3.74-5.21,5.22-.92,1.09-1.42,2.47-1.42,3.89v34.62c0,.82.66,1.48,1.48,1.48h4.4c.82,0,1.48.66,1.48,1.48v9.79c0,.82-.66,1.48-1.48,1.48h-32.57c-.82,0-1.48-.66-1.48-1.48v-9.79c0-.82.66-1.48,1.48-1.48h4.01c.82,0,1.48-.66,1.48-1.48v-48c0-.82-.66-1.48-1.48-1.48h-4.01c-.82,0-1.48-.66-1.48-1.48v-9.79c0-.82.66-1.48,1.48-1.48Z" fill="#000" stroke-width="0"/>
  <path d="M612.72,693.11h25.22c.82,0,1.48.66,1.48,1.48v6.89c0,1.18,1.33,1.89,2.31,1.22,3.24-2.2,8.91-6.03,10.42-6.92,2.14-1.27,3.35-2.67,10.5-2.67s12.7,5.69,12.7,12.7v26.07c0,.82-.66,1.48-1.48,1.48h-18.95c-.82,0-1.48-.66-1.48-1.48v-22.68c0-1.17-1.3-1.88-2.28-1.24-1.43.93-3.33,2.23-5.11,3.64-2.04,1.61-3.96,3.74-5.21,5.22-.92,1.09-1.42,2.47-1.42,3.89v34.62c0,.82.66,1.48,1.48,1.48h4.4c.82,0,1.48.66,1.48,1.48v9.79c0,.82-.66,1.48-1.48,1.48h-32.57c-.82,0-1.48-.66-1.48-1.48v-9.79c0-.82.66-1.48,1.48-1.48h4.01c.82,0,1.48-.66,1.48-1.48v-48c0-.82-.66-1.48-1.48-1.48h-4.01c-.82,0-1.48-.66-1.48-1.48v-9.79c0-.82.66-1.48,1.48-1.48Z" fill="#000" stroke-width="0"/>
  <path d="M232.43,728.92h-17.19c-.82,0-1.48-.66-1.48-1.48v-19.09c0-2.77,2.25-5.02,5.02-5.02h10.1c2.77,0,5.02,2.25,5.02,5.02v19.09c0,.82-.66,1.48-1.48,1.48ZM256.07,735.86v-24.43c0-10.11-8.2-18.31-18.31-18.31h-27.48c-10.11,0-18.31,8.2-18.31,18.31v39.82c0,10.11,8.2,18.31,18.31,18.31h27.48c10.11,0,18.31-8.2,18.31-18.31v-5.69c0-.82-.66-1.48-1.48-1.48h-19.2c-.82,0-1.48.66-1.48,1.48v8.9c0,2.77-2.25,5.02-5.02,5.02h-10.1c-2.77,0-5.02-2.25-5.02-5.02v-15.63c0-.82.66-1.48,1.48-1.48h39.35c.82,0,1.48-.66,1.48-1.48Z" fill="#000" stroke-width="0"/>
  <path d="M742.51,693.16h-27.19c-.82,0-1.48.66-1.48,1.48v9.79c0,.82.66,1.48,1.48,1.48h4.34c.82,0,1.48.66,1.48,1.48v47.96c0,.82-.66,1.48-1.48,1.48h-4.34c-.82,0-1.48.66-1.48,1.48v9.79c0,.82.66,1.48,1.48,1.48h34.48c.82,0,1.48-.66,1.48-1.48v-9.79c0-.82-.66-1.48-1.48-1.48h-4.34c-.82,0-1.48-.66-1.48-1.48v-60.69c0-.82-.66-1.48-1.48-1.48Z" fill="#000" stroke-width="0"/>
  <path d="M145.73,705.85h-8.5c-.82,0-1.48.66-1.48,1.48v2.83c0,.82-.66,1.48-1.48,1.48h-4.93c-.82,0-1.48-.66-1.48-1.48v-28.31c0-.82.66-1.48,1.48-1.48h613.17c.82,0,1.48-.66,1.48-1.48v-9.79c0-.82-.66-1.48-1.48-1.48H92.09c-.82,0-1.48.66-1.48,1.48v9.79c0,.82.66,1.48,1.48,1.48h11.46c.82,0,1.48.66,1.48,1.48v73.48c0,.82-.66,1.48-1.48,1.48h-11.46c-.82,0-1.48.66-1.48,1.48v9.79c0,.82.66,1.48,1.48,1.48h48.71c.82,0,1.48-.66,1.48-1.48v-9.79c0-.82-.66-1.48-1.48-1.48h-11.46c-.82,0-1.48-.66-1.48-1.48v-28.31c0-.82.66-1.48,1.48-1.48h4.93c.82,0,1.48.66,1.48,1.48v2.83c0,.82.66,1.48,1.48,1.48h8.5c.82,0,1.48-.66,1.48-1.48v-22.53c0-.82-.66-1.48-1.48-1.48Z" fill="#000" stroke-width="0"/>
  <path d="M566.6,755.33v-44.15c0-10.11-7.91-18.31-17.67-18.31h-25.47c-9.76,0-17.67,8.2-17.67,18.31v5.69c0,.82.64,1.48,1.42,1.48h18.53c.79,0,1.42-.66,1.42-1.48v-8.9c0-2.77,2.17-5.02,4.84-5.02h8.7c2.68,0,4.84,2.25,4.84,5.02v15.63c0,.82-.64,1.48-1.42,1.48h-24.58c-8.18,0-14.82,6.88-14.82,15.36v10.55c0,10.11,7.91,18.31,17.67,18.31l47.42.23c.79,0,1.42-.66,1.42-1.48v-9.79c0-.82-.64-1.48-1.42-1.48h-1.81c-.79,0-1.42-.66-1.42-1.48ZM544.08,759.1h-13.09c-2.69,0-4.87-2.18-4.87-4.87v-15.85c0-2.69,2.18-4.87,4.87-4.87h13.09c.82,0,1.48.66,1.48,1.48v22.64c0,.82-.66,1.48-1.48,1.48Z" fill="#000" stroke-width="0"/>
  <path d="M381.09,475.72c-1.13-3.6-2.7-7.71-7.88-7.71-3.27,0-5.4,2.31-5.4,5.46s2.08,4.95,7.04,7.43c6.02,2.98,9.85,5.91,9.85,11.49,0,6.64-5.52,11.49-13.57,11.49-3.6,0-6.81-.96-9.46-1.75-.34-1.3-1.29-7.15-1.69-9.8l2.2-.51c1.13,3.55,4.28,9.68,9.8,9.68,3.43,0,5.52-2.14,5.52-5.74,0-3.27-2.03-5.18-6.76-7.71-5.86-3.15-9.68-5.97-9.68-11.82s4.62-10.58,13.06-10.58c3.88,0,6.81.84,8.05,1.01.23,2.08.62,5.01,1.07,8.56l-2.14.51Z" fill="#000" stroke-width="0"/>
  <path d="M485.21,475.77c-.62-2.14-1.52-4.22-2.48-5.29-1.18-1.24-1.91-1.46-4.62-1.46h-4.22c-1.91,0-2.14.11-2.14,2.03v12.27h6.02c3.32,0,3.77-.84,4.62-4.79h2.08v12.5h-2.14c-.62-3.83-1.46-4.79-4.56-4.79h-6.02v8.78c0,5.18.34,5.57,5.4,5.91v2.08h-18.02v-2.08c4.28-.39,4.79-.73,4.79-5.91v-20.72c0-5.01-.51-5.46-4.79-5.8v-2.08h19.09c4.84,0,7.66-.06,8.56-.11.06.96.34,5.8.62,9.12l-2.2.34Z" fill="#000" stroke-width="0"/>
  <path d="M536.28,285.94c-3.57.06-12.84.57-18.47,4.07-7.08,4.39-16.05,12.17-14.09,31.91,1.95,19.74,15.35,29.92,6.52,47.41-8.5,16.84-24.24,13.57-25.41,13.3l-.1-.08c-.89-1.78-4.15-17.13-20.73-31.16-19.96-16.88-26.33-21.83-29.95-33.21-1.06-3.32-1.67-6.4-2.02-9.1-.29-2.26.31-5.02,2.16-4.3,1.85.72,2.5,1.69,4.92,1.98,2.47.29,3.46-.17,4.47-.51.17-.06.18-.29.01-.34-1.18-.42-3.01-1.43-4.38-3.31-1.41-1.93-.65-5.23-.29-6.46.05-.16.27-.18.34-.03.28.58.91,1.64,2.13,2.58,1.81,1.39,4.45.89,6.78,1.43,2.4.56,3.78,1.79,4.36,2.44.12.13.33.04.32-.13-.06-.92-.35-2.8-1.61-4.02-1.72-1.67-2.59-1.26-5.5-3.46-2.04-1.54-2.83-3.79-3.12-4.99-.05-.19.2-.31.32-.15.79,1.05,2.53,3,4.88,3.6,3.27.83,6.01-.18,10.05.06,3.08.18,5.39,1.88,6.33,2.68.14.12.35-.02.29-.19-.32-1.02-1.22-3.15-3.48-4.88-3.09-2.38-5.22-1.65-9.98-3.85-3.26-1.51-4.29-4.17-4.61-5.69-.04-.19.21-.3.33-.14.59.84,1.89,2,4.76,2.73,4.88,1.25,6.84-1.25,12.25-.35,3.98.66,6.48,3.08,7.52,4.31.13.15.37.02.31-.17-.48-1.5-1.7-4.55-4.21-6.58-3.45-2.79-6.48-2.5-11.95-5.05-4.23-1.98-5.26-4.94-5.52-6.18-.04-.18.18-.29.31-.17.82.83,2.9,2.62,5.7,2.91,3.66.38,10.23-1.43,14.55.86,3.26,1.72,5.68,4.59,6.68,5.91.12.16.37.04.32-.15-.43-1.74-1.7-5.84-4.86-9.33-4.14-4.57-7.28-3.52-13.17-5.56-4.19-1.45-6.16-4.11-6.94-5.52-.1-.18.12-.35.28-.22,1.05.91,3.27,2.41,6.81,2.7,5.18.43,7.56-1.95,12.03-1,3.5.75,6.8,3.86,8.07,5.17.13.14.36,0,.3-.19-.6-1.77-2.38-6.13-5.9-8.27-4.47-2.71-7.42-1.19-12.94-3.23-4.23-1.57-6.34-4.12-7.09-5.22-.1-.15.06-.34.23-.27,1.28.59,4.5,1.95,6.96,1.87,3.14-.1,5.9-1.76,10.56-1.76,3.69,0,7.35,2.35,8.71,3.33.15.11.35-.06.27-.23-.57-1.16-2.02-3.67-4.8-5.91-3.76-3.04-6.18-2.47-12.94-4.14-4.56-1.12-7.19-2.99-8.42-4.08-.15-.14,0-.38.19-.3,1.07.46,2.97,1,5.8.86,4.71-.24,5.61-2.71,11.08-2.81,3.87-.07,6.95,1.6,8.43,2.59.17.11.37-.1.24-.26-.99-1.26-3.01-3.52-5.86-5.28-4.19-2.57-9.46-2.19-14.52-2.57-3.83-.29-6.11-2.6-6.99-3.7-.12-.15.04-.35.21-.28,1.01.44,3.14,1.16,5.84.93,3.95-.33,5.04-2.68,9.84-2.97,3.65-.22,6.56,1.5,7.75,2.34.15.11.35-.06.26-.23-.6-1.12-2.16-3.41-5.38-4.93-4.41-2.08-8.39.04-13.33-1.44-3.82-1.14-5.99-3.44-6.79-4.43-.11-.14.02-.34.19-.29.87.27,2.68.74,4.59.67,2.66-.09,6.66-1.85,9.75-1.9,2.36-.04,5,1.62,6.12,2.41.15.11.35-.06.27-.23-.59-1.21-2.19-3.85-5.43-5.22-4.28-1.81-9.27-.86-12.98-1.09-2.33-.15-4.12-.8-5.13-1.26-.18-.08-.11-.36.09-.34,1.27.09,3.65,0,6.66-1.27,3.13-1.33,5.23-1.53,6.23-1.53.18,0,.25-.24.09-.33-.82-.48-2.42-1.31-4.31-1.67-2.78-.53-6.2-.07-8.76-1.5-5.08-2.83-9.1-7.52-17.02-8.79l-.15-.13c-1.59-5.47-5.24-7.45-10.2-12.21-.09-.08-.24-.06-.3.04-1.54,2.75-1.9,4.97-1.79,6.83.01.18-.2.26-.31.13-1.4-1.59-3.23-2.96-5.38-5.03-.09-.08-.24-.06-.3.04-1.72,3.11-1.46,5.32-1.01,7.09.04.14-.09.26-.22.21-.92-.3-1.9-.61-2.94-.87-3.77-.95-6.78-.41-8.36.04-.2.06-.16.36.05.36.75,0,1.74.08,2.72.38,1.83.56,2.69,1.46,3.06,2.02.1.15-.06.34-.22.27-.75-.32-2.38-.84-4.89-.83-2.87,0-5.84,1.24-7.34,1.96-.18.09-.1.37.1.34,1.29-.16,3.64-.32,6.56.07,3.39.45,6.61,2.69,8,3.77.12.09.08.28-.07.31-3.44.77-7.06,2.37-8.14,4.44-.62,1.17-14.44,6.13-29.7,8.62-1.81.3-3.16.66-3.99,2.99-.83,2.33-1.79,4.63-1.5,7.31.29,2.68,2.99,4.16,3.66,5.15.66,1,2.33,2.66,5.65,3.66s4.82-.67,6.32-1.33c1.13-.5,10.49-.41,15.68,1.74,6.18,2.56,11.62,3.25,16.77,1.89.22-.06.43.13.37.35-.83,3.17-3.44,12.54-6.36,18.28-3.62,7.13-8.97,10.35-13.08,15.16-3.86,4.54-6.62,9.55-6.93,10.11-.02.04-.05.06-.08.08-.66.29-6.91,3.1-10.29,4.79-3.57,1.78-8.31,5.41-10.16,11.2-.18.55-.31.99-.41,1.34-.06.2-.35.16-.36-.05-.02-1.18-.03-2.81.11-3.73.21-1.45.58-2.51.72-2.87.03-.08,0-.16-.06-.21l-19.6-14.24s-.02-.02-.04-.03c-.24-.29-3.26-3.91-8.9-3.91s-8.97,7.02-9.09,7.3v.02s-18.56,31.21-18.56,31.21c0,0-2.85,4.28-3.75,6.24-.85,1.87-1.05,5.67-1.07,6.04,0,.02,0,.04-.01.06-.22.55-3.75,9.39-4.27,13.71-.54,4.46,4.1,3.92,9.45,1.07s7.13-7.49,7.49-8.74c.36-1.25-4.1-4.28-3.03-5.89.92-1.38,2.1-2.1,2.42-2.28.05-.03.08-.08.09-.14.13-1.02,1.39-10.25,3.91-13.29,2.68-3.21,15.16-16.95,16.23-16.95s2.85,4.28,7.85,10.35c3.8,4.62,7.19,7.37,8.59,8.42.16.12.04.36-.15.32l-22.17-4.64s0,0-.01,0c-.17-.05-4.17-1.16-7.84,3.03-3.75,4.28-2.68,12.66-2.68,12.66,0,0,2.85,23.01,3.03,24.97.18,1.96.36,6.96.54,8.03.18,1.07,4.46,6.42,5.35,8.56.89,2.14,6.42,17.66,11.95,17.84,5.53.18,4.82-17.12,4.28-19.09s-6.78-1.78-8.03-3.75-1.07-5.71-1.6-7.67-3.75-9.63-4.28-14.45c-.47-4.26-.25-12.3-.19-14.09,0-.15.17-.23.29-.13,1.87,1.51,12.97,10.29,24.85,16.44,9.82,5.08,16.75,6.5,19.57,6.9.21.03.21.33,0,.36l-6.27.95c-.13.02-.19.16-.13.27,1.1,1.86,8.86,14.65,21.75,26.15,11.66,10.4,24.99,17.98,29.05,20.18.19.1.08.39-.13.34-1.84-.46-5.3-1.43-8.94-2.98-4.58-1.95-8.39-4.52-9.39-5.22-.11-.08-.27,0-.28.13-.18,1.89-.88,12.23,3.18,25.62,4.5,14.84,14.95,26.07,11.39,27.88-5.62,2.86-30.15,2.01-31.53,1.65-2.04-.52-5.41-.48-6.58-.03-2.25.85-12.55.33-16.29.78-3.75.45-12.18,6.38-12.62,9.98-.45,3.6,15.34,3.99,17.88,3.39,2.55-.6,1.94-6.02,4.63-5.57,2.7.45,8.24,1.5,10.19,1.05,1.95-.45,6.44-2.55,16.49-.6,10.04,1.95,24.58,6.82,27.88,4.8,5.85-3.6-5.53-24.74-3.54-36.07,2.14-12.23,8.08-17.48,10.48-25.17,1.27-4.08.88-10.35.66-12.81-.02-.21.27-.28.35-.09.89,2.14,2.58,7.82.15,16.28-3.15,10.94-10.06,15.52-7.96,30.21,2.1,14.69,12.47,31.65,11.86,34.39-1.2,5.4-23.85,24.58-26.83,26.08-1.75.88-5.55,5.25-7.64,7.49s-11.09,9.74-8.69,11.39c2.4,1.65,9.16,2.2,15.29,1.35,5.06-.7,9.14-3.3,8.99-4.65-.15-1.35-1.8-5.55-.6-6.15,1.2-.6,4.95-3.15,6.15-4.65,1.2-1.5,9.89-13.64,16.04-17.54,6.15-3.9,10.34-4.2,11.39-6.15,1.05-1.95,1.35-7.04-2.55-16.79-3.9-9.74,6.27-16.87,15.29-23.08,14.14-9.74,17.07-27.29,18.01-29.68.03-.08.11-.11.19-.09.39.07,1.54.42,2.81,2.02,1.56,1.97.81,4.14-1.29,11.95-1.64,6.1.19,9.5,1.07,10.7.11.15.35.05.33-.13-.2-1.5-.56-5.4.57-8.4,1.43-3.8,4.41-6.52,5.98-5.5,1.56,1.02.41,3.53-1.7,8.01s-4.48,8.49-4.75,16.5c-.21,6.24,3.41,9.23,5.02,10.24.16.1.35-.08.25-.24-.42-.75-.96-2.26-.93-5.04.07-6.72,13.17-23.36,12.22-30.69-.71-5.5-2.88-8.33-3.92-9.4-.13-.14,0-.36.19-.3,1.65.55,5.52,2.2,6.58,5.96,1.36,4.82-1.83,10.8-1.22,15.28.5,3.64,3.95,5.98,5.23,6.73.15.09.32-.07.25-.22-.51-1.19-1.66-4.39-1.07-7.46.75-3.87,3.26-7.54,4.41-14.46,1-6.03-2.88-9.1-3.91-9.79-.11-.07-.1-.23,0-.3,1.94-1.14,14.53-9.16,18.48-28.4,4.28-20.87-1.34-27.26-1.06-33.56.23-5.26,3.62-7.41,4.74-7.98.14-.07.13-.28-.02-.33-.73-.27-2.48-.62-4.81.94-1.75,1.18-2.38,2.31-2.61,2.96-.06.16-.28.17-.34,0-.67-1.85-2.64-8.15-1.02-14.73,1.6-6.51,6.5-8.94,8.11-9.58.16-.06.15-.3-.02-.34-1.38-.33-5.22-.78-9.68,2.77-4.15,3.31-5.68,10.54-6.16,13.7-.03.21-.34.2-.36-.01-.31-3.72-.51-13.39,4.68-19.36,4.95-5.68,12.29-8.24,15.34-9.1.2-.06.16-.36-.05-.36Z" fill="#000" stroke-width="0"/>
</svg>